<svg width="141" height="49" viewBox="0 0 141 49" fill="none" xmlns="http://www.w3.org/2000/svg">
<path fill-rule="evenodd" clip-rule="evenodd" d="M9.73385 4.73939L8.09648 8.63053L18.1097 3.38796L16.7242 7.81114L27.9969 1.94118L26.3595 7.50371L38.7028 0L32.768 10.7286L0.953735 10.524L9.73385 4.73939V4.73939Z" fill="#FFBA40"/>
<path fill-rule="evenodd" clip-rule="evenodd" d="M30.1393 26.6106V22.2251C30.5713 22.3794 34.2982 23.8413 33.9972 27.9194C33.8637 29.7652 33.0072 30.7414 32.0701 31.2433C32.0701 31.2433 32.026 31.1982 31.9517 31.1116C32.084 32.3113 31.9139 33.5249 31.4567 34.6426L31.4265 34.6263L31.4139 34.6137C31.3472 34.546 31.2791 34.4682 31.2136 34.3879C31.0789 34.223 30.9528 34.0512 30.8358 33.8734C30.7175 33.6948 30.6119 33.5082 30.5197 33.315C30.4167 33.125 30.3602 32.9135 30.3547 32.6976C30.2763 32.914 30.2487 33.1454 30.274 33.374C30.2906 33.6037 30.3217 33.8321 30.3672 34.0578C30.4113 34.2837 30.468 34.5083 30.5373 34.7342C30.5763 34.8471 30.6154 34.96 30.6632 35.0767C30.6889 35.1407 30.7183 35.2032 30.7514 35.2637C30.7738 35.3032 30.7987 35.3414 30.8257 35.3779L30.8572 35.4143L30.8736 35.4319L32.385 37.1421C32.385 37.1421 31.8661 38.7044 30.4945 39.1235L30.5322 39.0996C30.4126 38.9892 30.2879 38.865 30.1695 38.7383C30.0511 38.6115 29.9352 38.4823 29.8244 38.3493C29.7128 38.2166 29.6085 38.0779 29.512 37.9339C29.4103 37.7915 29.3329 37.6334 29.2828 37.4659C29.2502 37.6478 29.2473 37.8338 29.274 38.0167C29.2962 38.2016 29.3286 38.3851 29.371 38.5663C29.4014 38.7029 29.4383 38.8386 29.4752 38.9743C29.4871 39.0182 29.4991 39.062 29.5108 39.1059C29.5586 39.2853 29.6166 39.4573 29.6846 39.643L30.0624 40.4674L26.8293 42.4838C26.7109 42.3722 26.5874 42.2467 26.4678 42.1212C26.3481 41.9957 26.2335 41.8665 26.1227 41.7322C26.0107 41.6003 25.9064 41.462 25.8103 41.3181C25.7082 41.1758 25.6303 41.0176 25.5798 40.8501C25.5477 41.0321 25.5451 41.2181 25.5723 41.4009C25.5939 41.5854 25.6259 41.7684 25.668 41.9493C25.7052 42.1124 25.7486 42.2716 25.7926 42.433C25.7976 42.4516 25.8027 42.4702 25.8078 42.4889C25.8569 42.6695 25.9136 42.8415 25.9829 43.0272L26.3469 43.7299L23.7409 44.5154C23.6213 44.4037 23.4966 44.2795 23.3782 44.1527C23.2598 44.026 23.1452 43.8967 23.0331 43.7637C22.9214 43.631 22.8172 43.4924 22.7207 43.3484C22.619 43.206 22.5416 43.0479 22.4915 42.8804C22.4587 43.0623 22.4561 43.2484 22.4839 43.4312C22.5051 43.6161 22.537 43.7996 22.5796 43.9808C22.6101 44.1173 22.647 44.2531 22.6839 44.3887C22.6958 44.4326 22.7077 44.4765 22.7194 44.5204C22.7673 44.6998 22.8252 44.8717 22.8933 45.0587L23.1351 46.1767L20.9939 47.0664C20.8755 46.9547 20.7521 46.8292 20.6324 46.7037C20.5128 46.5783 20.3981 46.4478 20.286 46.3147C20.1749 46.1825 20.071 46.0442 19.9749 45.9007C19.8728 45.7583 19.795 45.6002 19.7444 45.4326C19.7123 45.6147 19.7098 45.8006 19.7369 45.9835C19.7586 46.1679 19.7905 46.351 19.8326 46.5318C19.8619 46.6638 19.8971 46.7932 19.9325 46.9233C19.9459 46.9725 19.9593 47.0218 19.9724 47.0714C20.0203 47.2521 20.0782 47.424 20.1462 47.6097L20.4233 47.9962C20.4233 47.9962 19.1008 49 16.8337 49C14.5666 49 13.2441 47.9962 13.2441 47.9962L13.5212 47.6097C13.5892 47.424 13.6421 47.2496 13.695 47.0714C13.7479 46.8932 13.7945 46.7138 13.8348 46.5318C13.8769 46.351 13.9088 46.1679 13.9305 45.9835C13.9576 45.8006 13.9551 45.6147 13.9229 45.4326C13.8723 45.5999 13.7949 45.758 13.6937 45.9007C13.5972 46.0442 13.4929 46.1825 13.3814 46.3147C13.2693 46.4528 13.1522 46.5782 13.035 46.7037L13.035 46.7037L13.0204 46.7193C12.908 46.8398 12.7942 46.9617 12.6735 47.0664L10.5323 46.1767L10.7691 45.0587C10.8371 44.8717 10.89 44.6986 10.9429 44.5204C10.9958 44.3422 11.0424 44.1615 11.084 43.9808C11.1268 43.7995 11.1596 43.6161 11.1822 43.4312C11.2096 43.2484 11.2066 43.0623 11.1734 42.8804C11.1233 43.0479 11.0459 43.206 10.9442 43.3484C10.8481 43.4927 10.7438 43.6313 10.6318 43.7637C10.521 43.9018 10.4051 44.0285 10.2867 44.1527C10.2687 44.1716 10.2508 44.1906 10.2328 44.2096C10.1322 44.3157 10.0308 44.4228 9.92397 44.5154L7.31802 43.7299L7.68328 43.0272C7.75129 42.8415 7.80419 42.667 7.85709 42.4889C7.90999 42.3107 7.95659 42.1312 7.9969 41.9493C8.03899 41.7684 8.07095 41.5854 8.09262 41.4009C8.11976 41.2181 8.11721 41.0321 8.08507 40.8501C8.03445 41.0174 7.95704 41.1754 7.85583 41.3181C7.75894 41.4614 7.65468 41.5996 7.54347 41.7322C7.43139 41.8702 7.31426 41.9957 7.19714 42.1212L7.1971 42.1212C7.07997 42.2467 6.95402 42.3747 6.83562 42.4838L3.62007 40.6179L3.98407 39.643C4.05208 39.4573 4.1075 39.2841 4.15914 39.1059C4.21078 38.9277 4.25738 38.747 4.29895 38.5663C4.34093 38.385 4.37289 38.2016 4.39467 38.0167C4.42201 37.8339 4.41904 37.6478 4.38585 37.4659C4.33629 37.6336 4.2588 37.7918 4.15662 37.9339C4.06014 38.0782 3.95543 38.2169 3.843 38.3493C3.73216 38.4873 3.61629 38.614 3.49789 38.7383C3.3795 38.8625 3.2548 38.9917 3.13515 39.0996L3.17294 39.1235C1.79376 38.7044 1.27106 37.1421 1.27106 37.1421C1.27106 37.1421 2.5331 35.5774 2.5734 35.5636L2.63134 35.5398C2.64703 35.5325 2.66218 35.5241 2.67668 35.5147C2.70257 35.4974 2.72739 35.4785 2.751 35.4582L2.76863 35.4431L2.77745 35.4331L2.79508 35.4143L2.82783 35.3766C2.85373 35.3411 2.8777 35.3043 2.89962 35.2662C2.93615 35.1997 2.9626 35.1395 2.98779 35.0818C3.03691 34.9651 3.07721 34.8521 3.11374 34.7392C3.18466 34.5169 3.24435 34.2911 3.29259 34.0629C3.3419 33.8364 3.37431 33.6065 3.38957 33.3752C3.39839 33.2595 3.39839 33.1433 3.38957 33.0277C3.38139 32.9126 3.35012 32.8004 3.29763 32.6976C3.30394 32.9133 3.25265 33.1268 3.149 33.3163C3.05583 33.5096 2.94848 33.6958 2.82783 33.8734C2.71073 34.0504 2.58462 34.2212 2.44997 34.3853C2.38322 34.4657 2.3152 34.5435 2.24719 34.6112L2.22955 34.6275L2.21066 34.6351L2.19933 34.6413C1.74693 33.5256 1.58615 32.3137 1.73204 31.1191C0.880608 30.5833 0.142529 29.6246 0.0165765 27.9194C-0.251701 24.2051 2.81271 22.663 3.68682 22.2991V26.6106C3.68716 30.7067 6.83168 34.1222 10.9278 34.4757C11.6582 33.3659 12.9007 32.6974 14.2328 32.6976H15.0351C15.3898 33.4208 16.1272 33.8794 16.9351 33.8794C17.743 33.8794 18.4803 33.4208 18.8351 32.6976H19.4245C20.7622 32.6972 22.0092 33.371 22.7383 34.4882C26.9022 34.2128 30.1385 30.768 30.1393 26.6106ZM17.2795 38.4709C17.8475 40.515 21.1122 39.8186 21.1122 39.8186L21.121 37.6892C21.121 36.2554 19.9543 35.093 18.515 35.093H15.2403C14.5491 35.092 13.8859 35.3646 13.3965 35.8508C12.9071 36.3369 12.6316 36.9969 12.6306 37.6854V39.8186C12.6306 39.8186 15.6836 39.9152 16.4091 38.4785C16.5634 38.5052 16.7199 38.5169 16.8764 38.5136C17.0117 38.5101 17.1465 38.4959 17.2795 38.4709Z" fill="rgb(151, 26, 151)"/>
<path fill-rule="evenodd" clip-rule="evenodd" d="M2.36176 34.5923C2.32694 34.5957 2.29268 34.6032 2.25973 34.6149L2.22951 34.6275L2.20432 34.6526" fill="#554E6C"/>
<path fill-rule="evenodd" clip-rule="evenodd" d="M10.8622 23.4648C11.162 23.4209 11.4605 23.387 11.7552 23.3732C12.0456 23.3611 12.3364 23.3749 12.6243 23.4146C12.9107 23.4553 13.189 23.54 13.4493 23.6656C13.7337 23.8051 13.9846 24.0041 14.1848 24.2491C14.1571 23.8886 14.007 23.5482 13.7591 23.2841C13.5071 23.0079 13.1947 22.7932 12.846 22.6567C12.503 22.5233 12.1415 22.4433 11.7741 22.4196C11.4186 22.4003 11.062 22.4171 10.7098 22.4697C10.0306 22.5795 9.372 22.7911 8.75631 23.0971C8.14558 23.3934 7.58369 23.7805 7.08997 24.2453C7.77137 24.1474 8.40239 23.983 9.02711 23.8387C9.65183 23.6944 10.2602 23.5664 10.8622 23.4648Z" fill="rgb(151, 26, 151)"/>
<path fill-rule="evenodd" clip-rule="evenodd" d="M20.242 23.6756C20.5023 23.55 20.7806 23.4653 21.067 23.4246C21.3544 23.385 21.6448 23.3711 21.9348 23.3832C22.2295 23.397 22.528 23.4309 22.8278 23.4748C23.4298 23.5715 24.0407 23.7095 24.6629 23.8576C25.2851 24.0056 25.9224 24.1662 26.6013 24.2641C26.1086 23.7984 25.5481 23.4097 24.9387 23.1109C24.3225 22.805 23.6635 22.5935 22.984 22.4835C22.6318 22.4308 22.2752 22.414 21.9197 22.4334C21.5527 22.4571 21.1916 22.5371 20.8491 22.6705C20.5002 22.8067 20.1877 23.0214 19.9359 23.2979C19.6877 23.5619 19.5371 23.9022 19.5089 24.2629C19.7079 24.0167 19.9579 23.8163 20.242 23.6756Z" fill="rgb(151, 26, 151)"/>
<path fill-rule="evenodd" clip-rule="evenodd" d="M11.336 24.8865C10.7558 24.8865 10.2855 25.355 10.2855 25.933C10.2855 26.5109 10.7558 26.9795 11.336 26.9795C11.9161 26.9795 12.3864 26.5109 12.3864 25.933C12.3867 25.6553 12.2762 25.389 12.0791 25.1926C11.882 24.9963 11.6147 24.8861 11.336 24.8865V24.8865Z" fill="rgb(151, 26, 151)"/>
<path fill-rule="evenodd" clip-rule="evenodd" d="M22.5066 24.8865C22.0816 24.886 21.6982 25.1406 21.5352 25.5316C21.3722 25.9226 21.4618 26.373 21.7621 26.6725C22.0624 26.9721 22.5144 27.0618 22.907 26.8999C23.2997 26.738 23.5558 26.3564 23.5558 25.933C23.5561 25.6555 23.4457 25.3894 23.2489 25.1931C23.0521 24.9968 22.7851 24.8865 22.5066 24.8865Z" fill="rgb(151, 26, 151)"/>
<path fill-rule="evenodd" clip-rule="evenodd" d="M19.2652 31.119H18.7115V31.6303C18.6847 32.6457 17.8973 33.454 16.9351 33.454C15.9729 33.454 15.1855 32.6457 15.1586 31.6303V31.119H14.605V31.6303C14.6054 32.0061 14.6883 32.3767 14.8472 32.713C15.237 33.5551 16.0473 34.0891 16.9351 34.0891C17.8229 34.0891 18.6331 33.5551 19.0229 32.713C19.1819 32.3767 19.2648 32.0061 19.2652 31.6303V31.119Z" fill="rgb(151, 26, 151)"/>
<path fill-rule="evenodd" clip-rule="evenodd" d="M19.1047 37.127C18.6526 37.2048 18.2684 37.3102 17.8981 37.378C17.5546 37.4512 17.2051 37.4932 16.854 37.5035C16.5109 37.5118 16.1681 37.4802 15.8325 37.4094C15.4407 37.325 15.0556 37.2126 14.68 37.0731C14.7421 37.2936 14.8512 37.4982 14.9999 37.6729C15.1468 37.8517 15.3211 38.0063 15.5163 38.1309C15.9231 38.3861 16.396 38.517 16.8766 38.5073C17.0119 38.5039 17.1467 38.4896 17.2797 38.4647C17.6091 38.4041 17.9239 38.281 18.2067 38.102C18.5918 37.8672 18.9029 37.5294 19.1047 37.127Z" fill="rgb(151, 26, 151)"/>
<path fill-rule="evenodd" clip-rule="evenodd" d="M0.953735 10.4776H32.8738L29.6305 18.1946L30.5122 18.4456V22.21L30.1343 22.1121C25.8261 20.9794 21.3949 20.3764 16.9396 20.3165H16.8779C12.4246 20.3768 7.99558 20.9798 3.68941 22.1121C3.64744 22.123 3.60547 22.1337 3.56349 22.1444C3.47951 22.1659 3.39554 22.1874 3.31156 22.21V18.4456L4.19322 18.1946L0.953735 10.4776ZM17.0644 18.3665L18.9537 16.4843V13.2005L16.8276 11.2694L14.8754 13.2143V16.5082L17.0644 18.3665Z" fill="#FFBA40"/>
<path fill-rule="evenodd" clip-rule="evenodd" d="M17.9459 13.6434L16.859 12.6572L15.8828 13.6296V16.0451L17.0089 17.0013L17.9459 16.069V13.6434V13.6434Z" fill="rgb(151, 26, 151)"/>
<path fill-rule="evenodd" clip-rule="evenodd" d="M53.0156 40.8365L46.8251 31.0653H46.7634V40.8365H40.9696V18.2412H46.7634V28.4051H46.8251L53.231 18.2412H59.2994L51.7901 29.5081L59.7893 40.8365H53.0156Z" fill="rgb(151, 26, 151)"/>
<path fill-rule="evenodd" clip-rule="evenodd" d="M72.0024 17.8219C65.1066 17.8219 60.0496 23.0733 60.0496 30.065C60.0496 36.7519 65.9643 41.2717 72.272 41.2717C78.7761 41.2717 83.9855 36.0805 83.9855 29.3937C83.9855 22.9202 78.6225 17.8219 72.0024 17.8219ZM72.0025 22.8901C75.6501 22.8901 78.193 26.0346 78.193 29.5769C78.193 33.1794 75.6803 36.2023 72.0944 36.2023C68.3864 36.2023 65.8422 33.2108 65.8422 29.4853C65.8422 25.9129 68.3864 22.8901 72.0025 22.8901Z" fill="rgb(151, 26, 151)"/>
<path fill-rule="evenodd" clip-rule="evenodd" d="M89.4739 40.8365V23.3106H85.0001V18.2412H99.7113V23.3106H95.2664V40.8365H89.4739Z" fill="#403A66"/>
<path fill-rule="evenodd" clip-rule="evenodd" d="M109.04 36.8675V40.8365H114.587V36.865H117.106V32.3477H114.587V18.2412H109.193L99.0479 32.6539V36.8675H109.04ZM109.346 25.2644H109.407L109.406 32.3478H104.872L109.346 25.2644Z" fill="#FFBA40"/>
<path fill-rule="evenodd" clip-rule="evenodd" d="M133.948 40.8365L129.044 32.8371L124.383 40.8365H117.918L125.853 28.8067L118.834 18.2412H125.393L129.285 24.6846L133.055 18.2412H139.583L132.656 28.9284L140.501 40.8365H133.948Z" fill="#FFBA40"/>
</svg>
