<?xml version="1.0" encoding="UTF-8"?>
<svg width="122px" height="122px" viewBox="0 0 122 122" version="1.1" xmlns="http://www.w3.org/2000/svg" xmlns:xlink="http://www.w3.org/1999/xlink">
    <!-- Generator: Sketch 52.4 (67378) - http://www.bohemiancoding.com/sketch -->
    <title>Group 17@svg</title>
    <desc>Created with Sketch.</desc>
    <g id="Misc" stroke="none" stroke-width="1" fill="none" fill-rule="evenodd">
        <g id="Group-17">
            <path d="M120.25,61 C120.25,28.2774948 93.7225052,1.75 61,1.75 C28.2774948,1.75 1.75,28.2774948 1.75,61 C1.75,93.7225052 28.2774948,120.25 61,120.25 C93.7225052,120.25 120.25,93.7225052 120.25,61 Z M121.75,61 C121.75,94.5509323 94.5509323,121.75 61,121.75 C27.4490677,121.75 0.25,94.5509323 0.25,61 C0.25,27.4490677 27.4490677,0.25 61,0.25 C94.5509323,0.25 121.75,27.4490677 121.75,61 Z" id="Path" fill="#FFBA40" fill-rule="nonzero"></path>
            <path d="M95.9395,53.3395 C95.8525,52.2085 95.4205,50.398 94.585,50.047 C93.7645,49.7035 92.4205,50.1655 91.9225,50.407 C91.765,50.3095 91.531,50.1685 91.348,50.065 C91.0105,49.8745 90.3055,49.9735 89.821,50.482 C89.578,50.737 89.4595,51.0505 89.476,51.388 C89.5,51.8485 89.8,52.315 90.091,52.7665 C90.3415,53.1565 90.655,53.6425 90.5815,53.89 C90.544,54.0145 90.376,54.1105 90.241,54.1705 C88.9255,54.7465 86.7925,54.7495 84.91,54.754 C83.5975,54.7555 82.444,54.7585 81.6145,54.934 C80.1805,52.5085 80.0815,50.1625 79.984,47.893 C79.8415,44.5795 79.708,41.446 75.322,38.9335 L75.5605,38.446 C75.802,38.545 76.006,38.6785 76.2175,38.8165 C76.7005,39.13 77.2495,39.487 78.385,39.5155 C79.2865,39.5155 80.137,39.094 80.8465,38.296 C82.2265,36.745 83.014,33.7885 82.7185,31.264 C82.3675,28.252 79.4425,25.852 76.273,26.167 C74.719,26.323 73.306,27.1165 72.2965,28.402 C71.233,29.7565 70.762,31.528 71.0035,33.262 C71.149,34.288 70.861,35.356 70.258,36.0505 C69.6505,36.751 68.767,37.06 67.6585,36.9085 C66.934,36.8125 66.28,36.766 65.6635,36.766 C63.5905,36.766 62.134,37.303 60.1195,38.047 C58.654,38.5885 56.8285,39.262 54.199,39.9325 C53.1385,40.2025 52.366,40.8415 52.0225,41.7295 C51.232,43.771 48.9655,54.3985 49.042,56.2165 C49.1095,57.7735 51.547,58.807 53.131,58.807 C53.632,58.807 54.01,58.7005 54.253,58.489 C54.955,57.88 55.1845,56.7175 55.2565,56.1505 C55.7125,56.0695 56.2525,55.8145 56.35,55.213 C56.488,54.3655 56.11,53.7325 55.228,53.332 C54.934,53.2015 54.499,53.2675 54.0925,53.3575 C53.884,53.404 53.6695,53.452 53.503,53.452 C53.35,53.452 53.314,53.4115 53.3035,53.398 C53.269,53.359 53.164,53.182 53.2495,52.564 C53.3815,51.6145 53.8345,50.8225 54.4075,49.8205 C55.0675,48.6655 55.882,47.242 56.398,45.109 C56.7925,45.142 57.1645,45.1585 57.5065,45.1585 C58.9435,45.1585 59.737,44.875 60.505,44.599 C61.072,44.395 61.612,44.2015 62.416,44.1415 C62.032,46.15 62.38,48.466 62.7175,50.71 C63.226,54.088 63.706,57.28 61.498,58.63 C58.402,60.523 56.9845,62.6575 55.6135,64.7215 C53.854,67.3705 52.192,69.8755 47.095,71.8315 C45.289,70.009 42.5545,69.37 39.907,68.7535 C38.5915,68.446 37.3495,68.1565 36.2365,67.732 C35.383,67.4065 34.6855,66.7015 34.0705,66.0805 C33.3985,65.404 32.8195,64.819 32.14,64.819 C31.348,64.819 30.8365,65.626 30.5215,66.232 C29.404,68.383 26.221,73.1605 26.1895,73.2085 L25.9795,73.5235 L26.2945,73.7305 C26.5705,73.9105 26.9005,74.0035 27.2755,74.0035 C29.2675,74.0035 32.2855,71.3215 33.1225,70.54 L37.999,73.645 C38.8435,74.176 39.6715,74.7325 40.4995,75.2905 C41.689,76.09 42.9205,76.9165 44.185,77.653 C44.77,77.995 45.709,78.175 46.897,78.175 C50.803,78.175 57.499,76.2865 64.6345,71.002 C69.6355,73.105 73.486,73.3705 76.588,73.585 C78.865,73.7425 80.6905,73.8685 82.249,74.671 C80.284,79.7785 80.6035,84.619 80.8165,87.8425 C80.8735,88.7155 80.923,89.4685 80.923,90.1015 C80.923,91.102 80.503,92.1835 80.1325,93.136 C79.645,94.39 79.225,95.473 79.7515,96.2425 C80.119,96.781 80.8645,97.0315 82.0975,97.0315 L92.9095,97.0315 L92.8945,96.6415 C92.8285,94.915 90.5635,94.288 88.372,93.6805 C86.6935,93.2155 84.9565,92.734 84.973,91.8925 C85,90.5845 86.617,84.562 87.9145,79.7245 C88.6015,77.164 89.1955,74.953 89.452,73.822 C89.5855,73.2295 89.3095,72.373 88.675,71.4085 C86.596,68.248 81.0205,64.2475 71.575,62.3845 C72.6265,60.202 73.819,56.1805 74.311,53.3155 C75.601,57.0055 77.746,59.524 77.8495,59.6455 C78.424,60.3145 79.2985,60.6715 80.227,60.6055 C82.8445,60.4105 92.3215,58.048 95.005,56.4025 C95.7175,55.966 96.055,54.85 95.9395,53.3395 Z" id="Path" fill="rgb(151, 26, 151)"></path>
            <polygon id="Path-9" fill="#FFBA40" fill-rule="nonzero" points="73 27.25 82.75 30.25 87.25 24.25 84.25 24.25 83.5 20.5 79.75 22 77.5 19 76 21.25 73 20.5"></polygon>
            <path d="M73.75,92.5 C74.1642136,92.5 74.5,92.8357864 74.5,93.25 C74.5,93.6642136 74.1642136,94 73.75,94 L53.5,94 C53.0857864,94 52.75,93.6642136 52.75,93.25 C52.75,92.8357864 53.0857864,92.5 53.5,92.5 L73.75,92.5 Z" id="Path-10" fill="rgb(151, 26, 151)" fill-rule="nonzero"></path>
            <path d="M61.75,86.5 C62.1642136,86.5 62.5,86.8357864 62.5,87.25 C62.5,87.6642136 62.1642136,88 61.75,88 L41.5,88 C41.0857864,88 40.75,87.6642136 40.75,87.25 C40.75,86.8357864 41.0857864,86.5 41.5,86.5 L61.75,86.5 Z" id="Path-10-Copy" fill="rgb(151, 26, 151)" fill-rule="nonzero"></path>
            <path d="M37.75,52 C38.1642136,52 38.5,52.3357864 38.5,52.75 C38.5,53.1642136 38.1642136,53.5 37.75,53.5 L22.75,53.5 C22.3357864,53.5 22,53.1642136 22,52.75 C22,52.3357864 22.3357864,52 22.75,52 L37.75,52 Z" id="Path-10-Copy-2" fill="rgb(151, 26, 151)" fill-rule="nonzero"></path>
            <path d="M42.25,46 C42.6642136,46 43,46.3357864 43,46.75 C43,47.1642136 42.6642136,47.5 42.25,47.5 L31.6093932,47.5 C31.1951796,47.5 30.8593932,47.1642136 30.8593932,46.75 C30.8593932,46.3357864 31.1951796,46 31.6093932,46 L42.25,46 Z" id="Path-10-Copy-3" fill="rgb(151, 26, 151)" fill-rule="nonzero"></path>
        </g>
    </g>
</svg>