<?xml version="1.0" encoding="UTF-8"?>
<svg width="122px" height="122px" viewBox="0 0 122 122" version="1.1" xmlns="http://www.w3.org/2000/svg" xmlns:xlink="http://www.w3.org/1999/xlink">
    <!-- Generator: Sketch 52.4 (67378) - http://www.bohemiancoding.com/sketch -->
    <title>Group 24@svg</title>
    <desc>Created with Sketch.</desc>
    <g id="Misc" stroke="none" stroke-width="1" fill="none" fill-rule="evenodd">
        <g id="Group-24">
            <path d="M61,121.75 C27.4487014,121.75 0.25,94.5512986 0.25,61 C0.25,27.4487014 27.4487014,0.25 61,0.25 C94.5512986,0.25 121.75,27.4487014 121.75,61 C121.75,94.5512986 94.5512986,121.75 61,121.75 Z M61,120.25 C93.7228714,120.25 120.25,93.7228714 120.25,61 C120.25,28.2771286 93.7228714,1.75 61,1.75 C28.2771286,1.75 1.75,28.2771286 1.75,61 C1.75,93.7228714 28.2771286,120.25 61,120.25 Z" id="Oval-Copy" fill="#FFBA40" fill-rule="nonzero"></path>
            <g id="Group-7" transform="translate(31.150000, 33.967391)" fill="rgb(151, 26, 151)">
                <path d="M45.6874,39.9196957 L45.6874,29.7662609 L42.636,34.0635652 L35.5718,34.0635652 C36.4496,34.821913 37.0348,35.9173043 37.0348,37.139087 C37.0348,38.403 36.4496,39.4983913 35.5718,40.2146087 L44.2662,40.2146087 C44.7678,40.2567391 45.2276,40.1303478 45.6874,39.9196957 Z" id="Path"></path>
                <path d="M8.4854,16.7257826 C13.167,16.7257826 16.9708,12.9761739 16.9708,8.34182609 C16.9708,3.70747826 13.167,0 8.4854,0 C3.8038,0 0,3.7496087 0,8.38395652 C0,13.0183043 3.8038,16.7257826 8.4854,16.7257826 Z" id="Path"></path>
                <path d="M46.2,8.38395652 C46.2,13.0183043 50.0038,16.767913 54.6854,16.767913 C59.367,16.767913 63.1708,13.0183043 63.1708,8.38395652 C63.1708,3.7496087 59.367,0 54.6854,0 C50.0038,-7.4838686e-16 46.2,3.7496087 46.2,8.38395652 Z" id="Path"></path>
                <path d="M36.1152,37.1812174 C36.1152,38.9085652 34.694,40.2567391 32.9802,40.2567391 L18.1412,40.2567391 C17.138,40.2567391 16.1766,39.7511739 15.5496,38.9506957 L5.434,24.837 L5.3504,24.7106087 C5.1832,24.4999565 4.9324,24.4578261 4.7234,24.6263478 C4.5144,24.7948696 4.4726,25.0476522 4.598,25.2583043 L14.7972,39.4983913 C15.1316,39.9618261 15.5914,40.341 16.093,40.635913 L16.093,61.4904783 L0.0418,61.4904783 L0.0418,51.8004783 L0,51.7162174 L0,24.6684783 C0,20.286913 3.5948,16.7479565 8.0674,16.7479565 C12.54,16.7479565 16.1348,20.286913 16.1348,24.6684783 L16.1348,27.3226957 L12.4564,22.1827826 C12.2892,21.9721304 12.0384,21.93 11.8294,22.0985217 C11.6622,22.224913 11.6204,22.4355652 11.6622,22.604087 C11.6622,22.6462174 11.704,22.6883478 11.704,22.7304783 L19.7714,34.0635652 L32.9384,34.0635652 C34.694,34.0635652 36.1152,35.4538696 36.1152,37.1812174 Z" id="Path"></path>
                <path d="M56.43,38.403 L56.43,22.4776957 C56.43,22.224913 56.221,22.0142609 55.9702,22.0142609 C55.7194,22.0142609 55.5104,22.224913 55.5104,22.4776957 L55.5104,38.2344783 L51.0796,51.7583478 L50.1182,54.6653478 C49.7838,55.6764783 49.8256,56.7718696 50.3272,57.6987391 C50.787,58.6677391 51.623,59.426087 52.668,59.7631304 C53.086,59.8895217 53.504,59.9737826 53.9638,59.9737826 C55.7194,59.9737826 57.266,58.8783913 57.8094,57.2353043 L59.6068,51.7162174 L62.7,42.279 L62.7,51.6319565 L62.6582,51.7162174 L59.6904,61.4062174 L46.607,61.4062174 L46.607,24.6684783 C46.607,20.286913 50.2018,16.7479565 54.6744,16.7479565 C59.0634,16.7479565 62.6582,20.2447826 62.7,24.5842174 L62.7,39.4562609 L58.6454,51.8426087 L56.9316,57.0246522 C56.5136,58.2885652 55.3014,59.1311739 53.9638,59.1311739 C53.6294,59.1311739 53.295,59.0890435 52.9606,58.9626522 C52.1664,58.7098696 51.4976,58.1200435 51.1214,57.3616957 C50.7452,56.6454783 50.7034,55.8028696 50.9542,55.0023913 L51.9992,51.8004783 L56.3464,38.4872609 L56.43,38.403 Z" id="Path"></path>
            </g>
            <polygon id="Path-9" fill="#FFBA40" fill-rule="nonzero" transform="translate(41.018641, 29.583570) rotate(-19.000000) translate(-41.018641, -29.583570) " points="31.5181058 33.2900059 44.5017071 37.4679538 50.5191768 29.0342903 46.5210927 29.0440112 45.5342865 23.7845152 40.5315955 25.9014369 37.5432043 21.6991866 35.5365334 24.8612029 31.5409923 23.8185386"></polygon>
            <path d="M57.2874233,59.4449549 C57.4528935,59.8694814 57.2428869,60.3477683 56.8183603,60.5132385 C56.3938338,60.6787088 55.9155469,60.4687021 55.7500767,60.0441756 L53.4813267,54.2235234 C53.3158565,53.7989968 53.5258631,53.3207099 53.9503897,53.1552397 C54.3749162,52.9897695 54.8532031,53.1997761 55.0186733,53.6243027 L57.2874233,59.4449549 Z" id="Path-11" fill="rgb(151, 26, 151)" fill-rule="nonzero"></path>
            <path d="M72.1374233,59.4449549 C72.3028935,59.8694814 72.0928869,60.3477683 71.6683603,60.5132385 C71.2438338,60.6787088 70.7655469,60.4687021 70.6000767,60.0441756 L68.3313267,54.2235234 C68.1658565,53.7989968 68.3758631,53.3207099 68.8003897,53.1552397 C69.2249162,52.9897695 69.7032031,53.1997761 69.8686733,53.6243027 L72.1374233,59.4449549 Z" id="Path-11-Copy" fill="rgb(151, 26, 151)" fill-rule="nonzero" transform="translate(70.234375, 56.834239) scale(-1, 1) translate(-70.234375, -56.834239) "></path>
            <path d="M64.15,58.0815217 C64.15,58.5371567 63.7806349,58.9065218 63.325,58.9065218 C62.8693651,58.9065218 62.5,58.5371567 62.5,58.0815217 L62.5,51.4293478 C62.5,50.9737129 62.8693651,50.6043478 63.325,50.6043478 C63.7806349,50.6043478 64.15,50.9737129 64.15,51.4293478 L64.15,58.0815217 Z" id="Path-12" fill="rgb(151, 26, 151)" fill-rule="nonzero"></path>
        </g>
    </g>
</svg>