<?xml version="1.0" encoding="UTF-8"?>
<svg width="122px" height="122px" viewBox="0 0 122 122" version="1.1" xmlns="http://www.w3.org/2000/svg" xmlns:xlink="http://www.w3.org/1999/xlink">
    <!-- Generator: Sketch 52.4 (67378) - http://www.bohemiancoding.com/sketch -->
    <title>Group 27@svg</title>
    <desc>Created with Sketch.</desc>
    <g id="Misc" stroke="none" stroke-width="1" fill="none" fill-rule="evenodd">
        <g id="Group-27">
            <path d="M61,121.75 C27.4487014,121.75 0.25,94.5512986 0.25,61 C0.25,27.4487014 27.4487014,0.25 61,0.25 C94.5512986,0.25 121.75,27.4487014 121.75,61 C121.75,94.5512986 94.5512986,121.75 61,121.75 Z M61,120.25 C93.7228714,120.25 120.25,93.7228714 120.25,61 C120.25,28.2771286 93.7228714,1.75 61,1.75 C28.2771286,1.75 1.75,28.2771286 1.75,61 C1.75,93.7228714 28.2771286,120.25 61,120.25 Z" id="Oval-Copy-3" fill="#FFBA40" fill-rule="nonzero"></path>
            <path d="M52.3189913,58.7632 C55.3816522,60.6496 59.3561043,59.6569 61.2071826,56.5564 C63.0582609,53.4595 62.095913,49.4212 59.0297043,47.5303 C55.9794609,45.6529 51.9961391,46.6411 50.1450609,49.7398 C48.2877739,52.8403 49.2652,56.8777 52.3189913,58.7632 Z" id="Path" fill="rgb(151, 26, 151)"></path>
            <path d="M48.2913217,56.8849 L48.2842261,56.8921 C47.4088,55.7932 46.1209391,55.0291 44.6273043,54.8635 C38.513513,54.1867 35.0126957,62.6206 33.8658609,65.3908 C31.5154261,71.0599 30.8679478,75.2557 31.8613391,78.1681 L35.0854261,86.7676 L23.5461217,86.6848 L23.5,93.748 L40.0399652,93.748 L40.0630261,93.748 C41.1832522,93.748 42.2342957,93.1918 42.8746783,92.2567 C43.5203826,91.3144 43.6649565,90.112 43.2622783,89.0401 L40.6484174,82.0948 L50.794313,80.608 L50.8031826,92.9551 L57.6478261,92.9497 L57.6371826,76.594 C57.6371826,75.5869 57.2052348,74.6284 56.4539826,73.9714 C55.7036174,73.3108 54.711113,73.0138 53.7239304,73.1596 L42.3673391,74.8264 C42.4489391,74.1667 42.7602609,72.5935 43.960313,69.6982 C44.9945043,67.1989 45.7705913,66.0046 46.144887,65.5114 C46.3754957,65.0101 46.7338261,64.597 47.1302957,64.2118 L51.9136522,70.132 C52.405913,70.744 53.1332174,71.1112 53.9128522,71.1463 L66.4286957,70.8556 L66.5954435,66.9712 L55.3710087,65.6455 L48.2913217,56.8849 Z" id="Path" fill="rgb(151, 26, 151)"></path>
            <g id="Group-28" transform="translate(46.000000, 23.500000)" fill="#FFBA40">
                <g id="Path-3" transform="translate(1.509317, 0.249012)">
                    <path d="M19.5286137,14.4838245 L22.3225267,10.3601881 L15.7152075,11.7656609 C16.322646,8.32471542 16.6465118,6.61340632 16.686805,6.6317336 C17.0015478,6.77376996 15.313036,7.76878814 11.6212696,9.61678814 L10.7944994,3.85858814 C11.2107354,3.94564269 10.7180944,3.84026087 10.7808149,3.85400632 L7.33917019,7.88715178 L4.10735404,1.9319336 L1.8973118,10.0887154 C1.56204224,10.8137881 4.80640248,13.0256609 9.13981863,15.0324972 C11.218718,15.99697 13.1653342,16.72777 14.6751876,17.1573154 L16.4439056,13.2959881 L19.5286137,14.4838245 Z" id="Path"></path>
                </g>
                <path d="M3.06565714,11.0891455 L2.1830087,13.0043455 C1.85001988,13.7317091 5.09323975,15.9435818 9.42437516,17.9481273 C11.8408248,19.0649455 15.0338683,19.9263273 15.0338683,19.9263273 L15.8446733,18.1566 C14.338241,17.7293455 12.3927652,16.9951091 10.3058832,16.0317818 C5.97246708,14.0238 2.7292472,11.8096364 3.06565714,11.0891455 Z" id="Path"></path>
            </g>
            <path d="M84.9283652,35.311 C88.4726435,35.8456 91.7579304,33.3724 92.2830087,29.7841 C92.8107478,26.1985 90.3742783,22.8568 86.8264522,22.3222 C83.2972522,21.7894 80.0030957,24.268 79.4797913,27.8527 C78.9511652,31.4419 81.3956174,34.7764 84.9283652,35.311 Z" id="Path" fill="rgb(151, 26, 151)"></path>
            <path d="M85.056087,37.858 C85.9306261,37.2568 86.9843304,36.9031 88.1205217,36.9031 C88.1373739,36.9031 88.155113,36.9049 88.1746261,36.9049 C91.1991478,36.9346 93.6249739,39.4447 93.5948174,42.5119 L93.4271826,60.1933 C93.4254087,60.5209 93.275513,76.0558 93.275513,76.0558 L95.5,92.8219 L88.7147826,93.748 L86.4610261,76.7443 C86.441513,76.5877 86.4299826,76.4293 86.4299826,76.27 L86.441513,72.6259 L85.5164174,76.1242 L85.0436696,93.6742 L78.201687,93.6742 L78.6850783,75.5266 C78.6948348,75.253 78.732087,74.983 78.8030435,74.7202 L82.5282609,60.6379 C82.5114087,60.4552 82.6072,46.6096 82.6072,46.6096 L86.6685739,43.4524 L86.6171304,43.3876 L78.2327304,48.3889 C77.8132,48.6301 77.3493217,48.7489 76.8827826,48.7489 C76.4942957,48.7489 76.1022609,48.6661 75.7403826,48.496 L63.3043652,41.7739 L64.9079826,38.2405 L76.7524,42.853 L85.056087,37.858 Z" id="Path" fill="rgb(151, 26, 151)"></path>
            <path d="M36.25,45.985 C36.6724978,45.985 37.015,46.3275022 37.015,46.75 C37.015,47.1724978 36.6724978,47.515 36.25,47.515 L28,47.515 C27.5775022,47.515 27.235,47.1724978 27.235,46.75 C27.235,46.3275022 27.5775022,45.985 28,45.985 L36.25,45.985 Z" id="Path-14" fill="rgb(151, 26, 151)" fill-rule="nonzero"></path>
            <path d="M38.0114334,35.531058 C38.4084941,35.6754437 38.6133277,36.1143728 38.468942,36.5114334 C38.3245563,36.9084941 37.8856272,37.1133277 37.4885666,36.968942 L29.2385666,33.968942 C28.8415059,33.8245563 28.6366723,33.3856272 28.781058,32.9885666 C28.9254437,32.5915059 29.3643728,32.3866723 29.7614334,32.531058 L38.0114334,35.531058 Z" id="Path-14-Copy" fill="rgb(151, 26, 151)" fill-rule="nonzero"></path>
            <path d="M42.1687303,29.1284832 C42.3739134,29.4978127 42.2408464,29.9635472 41.8715168,30.1687303 C41.5021873,30.3739134 41.0364528,30.2408464 40.8312697,29.8715168 L37.0812697,23.1215168 C36.8760866,22.7521873 37.0091536,22.2864528 37.3784832,22.0812697 C37.7478127,21.8760866 38.2135472,22.0091536 38.4187303,22.3784832 L42.1687303,29.1284832 Z" id="Path-14-Copy-2" fill="rgb(151, 26, 151)" fill-rule="nonzero"></path>
        </g>
    </g>
</svg>