<?xml version="1.0" encoding="UTF-8"?>
<svg width="122px" height="122px" viewBox="0 0 122 122" version="1.1" xmlns="http://www.w3.org/2000/svg" xmlns:xlink="http://www.w3.org/1999/xlink">
    <!-- Generator: Sketch 52.4 (67378) - http://www.bohemiancoding.com/sketch -->
    <title>Group 25@svg</title>
    <desc>Created with Sketch.</desc>
    <g id="Misc" stroke="none" stroke-width="1" fill="none" fill-rule="evenodd">
        <g id="Group-25">
            <path d="M61,121.75 C27.4487014,121.75 0.25,94.5512986 0.25,61 C0.25,27.4487014 27.4487014,0.25 61,0.25 C94.5512986,0.25 121.75,27.4487014 121.75,61 C121.75,94.5512986 94.5512986,121.75 61,121.75 Z M61,120.25 C93.7228714,120.25 120.25,93.7228714 120.25,61 C120.25,28.2771286 93.7228714,1.75 61,1.75 C28.2771286,1.75 1.75,28.2771286 1.75,61 C1.75,93.7228714 28.2771286,120.25 61,120.25 Z" id="Oval-Copy-3" fill="#FFBA40" fill-rule="nonzero"></path>
            <g id="Group-6" transform="translate(43.401786, 17.500000)">
                <g id="Group-23" transform="translate(15.267857, 0.000000)" fill="#FFBA40">
                    <path d="M13.1576832,7.14125041 L16.0307054,3.73331091 C16.2741689,3.44399942 16.0856316,2.97827173 15.7243962,2.97827173 L1.48316327,2.97827173 L1.48316327,11.9130869 L15.7243962,11.9130869 C16.0856316,11.9130869 16.2741689,11.4470818 16.0296835,11.1566608 L13.1576832,7.75010823 C13.0120649,7.57785278 13.0120649,7.31350586 13.1576832,7.14125041 Z" id="Fill-16"></path>
                    <path d="M1.48351751,22.337038 C0.688351582,22.337038 0.043622449,21.5947178 0.043622449,20.6802773 L0.043622449,1.65703254 C0.043622449,0.742320125 0.688351582,0 1.48351751,0 C2.27797495,0 2.92270408,0.742320125 2.92270408,1.65703254 L2.92270408,20.6802773 C2.92270408,21.5947178 2.27797495,22.337038 1.48351751,22.337038 Z" id="Fill-17"></path>
                </g>
                <path d="M23.0326531,25.8911089 L9.59693878,25.8911089 L9.59693878,17.7130839 C9.59693878,17.2950439 9.91270174,16.9562937 10.3016801,16.9562937 L22.3279118,16.9562937 C22.7168901,16.9562937 23.0326531,17.2950439 23.0326531,17.7130839 L23.0326531,25.8911089 Z" id="Fill-1" fill="rgb(151, 26, 151)"></path>
                <path d="M32.8648343,21.9200799 L28.5598082,21.9200799 C28.1604426,21.9200799 27.8362475,22.2592817 27.8362475,22.6785702 L27.8362475,24.0654331 C27.8362475,24.4841615 27.5120524,24.8239233 27.1125086,24.8239233 L20.3735253,24.8239233 C19.9741597,24.8239233 19.6499646,24.4841615 19.6499646,24.0654331 L19.6499646,22.6785702 C19.6499646,22.2592817 19.3257695,21.9200799 18.9262257,21.9200799 L14.6623475,21.9200799 C14.2629818,21.9200799 13.9386086,22.2592817 13.9386086,22.6785702 L13.9386086,24.0654331 C13.9386086,24.4841615 13.6144135,24.8239233 13.2150479,24.8239233 L6.47606459,24.8239233 C6.07669896,24.8239233 5.75232572,24.4841615 5.75232572,24.0654331 L5.75232572,22.6785702 C5.75232572,22.2592817 5.4281306,21.9200799 5.02876497,21.9200799 L0.723738872,21.9200799 C0.323660726,21.9200799 0,22.2592817 0,22.6785702 L0,36.8569054 L2.55864759,43.2798971 L2.55864759,79.5 L31.1177433,79.5 L31.1177433,43.2806438 L33.5892857,36.8569054 L33.5892857,22.6785702 C33.5892857,22.2592817 33.2649125,21.9200799 32.8648343,21.9200799 Z" id="Fill-6" fill="rgb(151, 26, 151)"></path>
                <path d="M20.7756904,79.5 L12.8135953,79.5 C12.0977507,79.5 11.5163265,78.8847603 11.5163265,78.1259308 L11.5163265,67.215503 C11.5163265,64.1311958 13.8800186,61.6303696 16.7948025,61.6303696 C19.7092671,61.6303696 22.0729592,64.1311958 22.0729592,67.215503 L22.0729592,78.1259308 C22.0729592,78.8847603 21.4918543,79.5 20.7756904,79.5 Z" id="Fill-14" fill="#FFBA40"></path>
            </g>
            <path d="M78.5178571,83.2409615 C78.0953593,83.2409615 77.7528572,82.8984594 77.7528572,82.4759615 C77.7528572,82.0534637 78.0953593,81.7109616 78.5178571,81.7109616 L83.9992671,81.7109616 C84.4217649,81.7109616 84.7642671,82.0534637 84.7642671,82.4759615 C84.7642671,82.8984594 84.4217649,83.2409615 83.9992671,83.2409615 L78.5178571,83.2409615 Z" id="Path-13" fill="rgb(151, 26, 151)" fill-rule="nonzero"></path>
            <path d="M87.5159144,83.2409615 C87.0934166,83.2409615 86.7509145,82.8984594 86.7509145,82.4759615 C86.7509145,82.0534637 87.0934166,81.7109616 87.5159144,81.7109616 L104.473214,81.7109616 C104.895712,81.7109616 105.238214,82.0534637 105.238214,82.4759615 C105.238214,82.8984594 104.895712,83.2409615 104.473214,83.2409615 L87.5159144,83.2409615 Z" id="Path-13-Copy-2" fill="rgb(151, 26, 151)" fill-rule="nonzero"></path>
            <path d="M20.5,83.2409615 C20.0775022,83.2409615 19.735,82.8984594 19.735,82.4759615 C19.735,82.0534637 20.0775022,81.7109616 20.5,81.7109616 L48.5334602,81.7109616 C48.955958,81.7109616 49.2984601,82.0534637 49.2984601,82.4759615 C49.2984601,82.8984594 48.955958,83.2409615 48.5334602,83.2409615 L20.5,83.2409615 Z" id="Path-13-Copy" fill="rgb(151, 26, 151)" fill-rule="nonzero"></path>
        </g>
    </g>
</svg>